# Blender 3.5.0
# www.blender.org
mtllib palleteton.mtl
g Cube.005_Cube.021
v 0.007431 0.131347 -0.626197
v 0.007431 0.151865 -0.626197
v 0.007431 0.131347 -1.760890
v 0.007431 0.151865 -1.760890
v 1.020773 0.131347 -0.626197
v 1.020773 0.151865 -0.626197
v 1.020773 0.131347 -1.760890
v 1.020773 0.151865 -1.760890
v 0.007431 0.000212 -0.695785
v 0.007431 0.140272 -0.695785
v 0.007431 0.000212 -0.627496
v 0.007431 0.140272 -0.627496
v 1.020773 0.000212 -0.695785
v 1.020773 0.140272 -0.695785
v 1.020773 0.000212 -0.627496
v 1.020773 0.140272 -0.627496
v 0.007431 0.000212 -1.760845
v 0.007431 0.140272 -1.760845
v 0.007431 0.000212 -1.692556
v 0.007431 0.140272 -1.692556
v 1.020773 0.000212 -1.760845
v 1.020773 0.140272 -1.760845
v 1.020773 0.000212 -1.692556
v 1.020773 0.140272 -1.692556
v 0.007431 0.000415 -0.661883
v 0.007431 0.020932 -0.661883
v 0.007431 0.000415 -1.719099
v 0.007431 0.020932 -1.719099
v 1.020773 0.000415 -0.661883
v 1.020773 0.020932 -0.661883
v 1.020773 0.000415 -1.719099
v 1.020773 0.020932 -1.719099
v 0.007431 0.000212 -1.396582
v 0.007431 0.140272 -1.396582
v 0.007431 0.000212 -1.328293
v 0.007431 0.140272 -1.328293
v 1.020773 0.000212 -1.396582
v 1.020773 0.140272 -1.396582
v 1.020773 0.000212 -1.328293
v 1.020773 0.140272 -1.328293
v 0.007431 0.000212 -1.068723
v 0.007431 0.140272 -1.068723
v 0.007431 0.000212 -1.000434
v 0.007431 0.140272 -1.000434
v 1.020773 0.000212 -1.068723
v 1.020773 0.140272 -1.068723
v 1.020773 0.000212 -1.000434
v 1.020773 0.140272 -1.000434
vn -1.0000 -0.0000 -0.0000
vn -0.0000 -0.0000 -1.0000
vn 1.0000 -0.0000 -0.0000
vn -0.0000 -0.0000 1.0000
vn -0.0000 -1.0000 -0.0000
vn -0.0000 1.0000 -0.0000
vt 0.375000 0.000000
vt 0.375000 1.000000
vt 0.125000 0.750000
vt 0.625000 0.000000
vt 0.625000 1.000000
vt 0.875000 0.750000
vt 0.375000 0.250000
vt 0.125000 0.500000
vt 0.625000 0.250000
vt 0.875000 0.500000
vt 0.375000 0.750000
vt 0.625000 0.750000
vt 0.375000 0.500000
vt 0.625000 0.500000
vt 0.375000 0.000000
vt 0.375000 1.000000
vt 0.125000 0.750000
vt 0.625000 0.000000
vt 0.625000 1.000000
vt 0.875000 0.750000
vt 0.375000 0.250000
vt 0.125000 0.500000
vt 0.625000 0.250000
vt 0.875000 0.500000
vt 0.375000 0.750000
vt 0.625000 0.750000
vt 0.375000 0.500000
vt 0.625000 0.500000
vt 0.375000 0.000000
vt 0.375000 1.000000
vt 0.125000 0.750000
vt 0.625000 0.000000
vt 0.625000 1.000000
vt 0.875000 0.750000
vt 0.375000 0.250000
vt 0.125000 0.500000
vt 0.625000 0.250000
vt 0.875000 0.500000
vt 0.375000 0.750000
vt 0.625000 0.750000
vt 0.375000 0.500000
vt 0.625000 0.500000
vt 0.375000 0.000000
vt 0.375000 1.000000
vt 0.125000 0.750000
vt 0.625000 0.000000
vt 0.625000 1.000000
vt 0.875000 0.750000
vt 0.375000 0.250000
vt 0.125000 0.500000
vt 0.625000 0.250000
vt 0.875000 0.500000
vt 0.375000 0.750000
vt 0.625000 0.750000
vt 0.375000 0.500000
vt 0.625000 0.500000
vt 0.375000 0.000000
vt 0.375000 1.000000
vt 0.125000 0.750000
vt 0.625000 0.000000
vt 0.625000 1.000000
vt 0.875000 0.750000
vt 0.375000 0.250000
vt 0.125000 0.500000
vt 0.625000 0.250000
vt 0.875000 0.500000
vt 0.375000 0.750000
vt 0.625000 0.750000
vt 0.375000 0.500000
vt 0.625000 0.500000
vt 0.375000 0.000000
vt 0.375000 1.000000
vt 0.125000 0.750000
vt 0.625000 0.000000
vt 0.625000 1.000000
vt 0.875000 0.750000
vt 0.375000 0.250000
vt 0.125000 0.500000
vt 0.625000 0.250000
vt 0.875000 0.500000
vt 0.375000 0.750000
vt 0.625000 0.750000
vt 0.375000 0.500000
vt 0.625000 0.500000
s 0
g off
g Cube.005_Material.001
usemtl Material.001
f 1/1/1 2/4/1 4/9/1 3/7/1
f 3/7/2 4/9/2 8/14/2 7/13/2
f 7/13/3 8/14/3 6/12/3 5/11/3
f 5/11/4 6/12/4 2/5/4 1/2/4
f 3/8/5 7/13/5 5/11/5 1/3/5
f 8/14/6 4/10/6 2/6/6 6/12/6
f 9/15/3 10/18/3 12/23/3 11/21/3
f 11/21/2 12/23/2 16/28/2 15/27/2
f 15/27/1 16/28/1 14/26/1 13/25/1
f 13/25/4 14/26/4 10/19/4 9/16/4
f 11/22/6 15/27/6 13/25/6 9/17/6
f 16/28/5 12/24/5 10/20/5 14/26/5
f 17/29/3 18/32/3 20/37/3 19/35/3
f 19/35/2 20/37/2 24/42/2 23/41/2
f 23/41/1 24/42/1 22/40/1 21/39/1
f 21/39/4 22/40/4 18/33/4 17/30/4
f 19/36/6 23/41/6 21/39/6 17/31/6
f 24/42/5 20/38/5 18/34/5 22/40/5
f 25/43/1 26/46/1 28/51/1 27/49/1
f 27/49/2 28/51/2 32/56/2 31/55/2
f 31/55/3 32/56/3 30/54/3 29/53/3
f 29/53/4 30/54/4 26/47/4 25/44/4
f 27/50/5 31/55/5 29/53/5 25/45/5
f 32/56/6 28/52/6 26/48/6 30/54/6
f 33/57/3 34/60/3 36/65/3 35/63/3
f 35/63/2 36/65/2 40/70/2 39/69/2
f 39/69/1 40/70/1 38/68/1 37/67/1
f 37/67/4 38/68/4 34/61/4 33/58/4
f 35/64/6 39/69/6 37/67/6 33/59/6
f 40/70/5 36/66/5 34/62/5 38/68/5
f 41/71/3 42/74/3 44/79/3 43/77/3
f 43/77/2 44/79/2 48/84/2 47/83/2
f 47/83/1 48/84/1 46/82/1 45/81/1
f 45/81/4 46/82/4 42/75/4 41/72/4
f 43/78/6 47/83/6 45/81/6 41/73/6
f 48/84/5 44/80/5 42/76/5 46/82/5
